<?xml version="1.0" standalone="no"?>
<!DOCTYPE svg PUBLIC "-//W3C//DTD SVG 20010904//EN"
 "http://www.w3.org/TR/2001/REC-SVG-20010904/DTD/svg10.dtd">
<svg version="1.0" xmlns="http://www.w3.org/2000/svg"
 width="3300.000000pt" height="3300.000000pt" viewBox="0 0 3300.000000 3300.000000"
 preserveAspectRatio="xMidYMid meet">
<metadata>
Created by potrace 1.11, written by Peter Selinger 2001-2013
</metadata>
<g transform="translate(0.000000,3300.000000) scale(0.100000,-0.100000)"
fill="#000000" stroke="none">
<path d="M17475 28683 c-77 -57 -141 -109 -143 -113 -2 -7 78 -119 161 -225 4
-5 124 -166 267 -357 l260 -348 0 -324 0 -325 139 -138 139 -138 156 1 c86 1
160 5 164 8 4 4 7 212 7 462 l0 454 349 466 348 465 -23 17 c-13 9 -79 58
-146 109 l-122 92 -34 -42 c-19 -23 -108 -141 -198 -262 -90 -121 -168 -224
-172 -230 -5 -5 -67 -89 -139 -185 -72 -96 -138 -185 -148 -198 -18 -22 -19
-21 -351 424 -184 246 -343 457 -354 470 l-20 22 -140 -105z"/>
<path d="M15200 28762 c-6 -2 -10 -73 -10 -185 l0 -182 356 0 c196 0 358 -3
361 -8 2 -4 4 -319 4 -700 l0 -694 140 -139 139 -139 160 0 c135 0 161 2 164
15 2 8 3 381 3 828 -1 448 1 819 5 825 5 9 104 12 360 12 l353 0 3 183 c1 100
-1 182 -5 183 -26 3 -2025 3 -2033 1z"/>
<path d="M13040 27872 l0 -887 138 -138 137 -137 165 0 165 0 0 353 c-1 193 0
357 2 362 2 7 205 10 584 9 l582 -1 138 137 139 137 0 389 0 389 -138 138
-137 137 -888 0 -887 0 0 -888z m1440 519 c3 0 5 -134 5 -296 l0 -295 -420 2
-420 3 -1 285 c0 157 1 290 3 295 2 7 147 10 416 9 226 -1 414 -2 417 -3z"/>
<path d="M17629 26016 c-2 -2 -35 -6 -74 -10 -383 -36 -636 -101 -922 -237
-197 -94 -444 -263 -584 -399 -164 -159 -432 -417 -459 -440 -19 -17 -64 -48
-100 -70 -184 -110 -354 -111 -620 -5 -213 85 -442 160 -580 190 -8 2 -53 12
-100 23 -47 11 -103 23 -125 26 -22 4 -47 8 -55 11 -15 4 -36 7 -165 26 -224
32 -571 32 -765 -1 -30 -5 -67 -11 -83 -14 -15 -3 -35 -7 -45 -10 -9 -3 -29
-7 -43 -10 -44 -7 -177 -46 -247 -72 -235 -87 -507 -250 -688 -411 -18 -15
-42 -37 -55 -49 -48 -42 -167 -171 -230 -249 -82 -100 -249 -331 -249 -344 0
-5 -4 -11 -9 -13 -4 -1 -20 -21 -34 -43 -116 -176 -153 -232 -207 -315 -33
-52 -66 -104 -73 -115 -96 -154 -127 -197 -175 -248 -143 -150 -276 -217 -527
-262 -36 -6 -267 -7 -286 -1 -8 3 -32 7 -54 10 -22 3 -50 7 -61 10 -12 2 -39
7 -60 10 -21 4 -68 13 -104 22 -89 21 -304 61 -365 69 -27 4 -61 9 -75 11
-149 23 -544 22 -689 -2 -25 -5 -121 -21 -171 -31 -14 -2 -59 -13 -100 -24
-41 -11 -88 -24 -105 -28 -16 -4 -84 -29 -150 -55 -321 -128 -567 -286 -780
-502 -125 -126 -202 -226 -292 -379 -85 -144 -193 -400 -218 -515 -2 -8 -10
-42 -18 -75 -9 -33 -19 -80 -22 -105 -3 -25 -8 -52 -10 -60 -19 -74 -26 -411
-12 -565 8 -87 27 -233 42 -315 2 -14 7 -47 10 -75 3 -27 12 -90 20 -140 7
-49 16 -110 20 -135 3 -25 10 -70 15 -100 5 -30 12 -75 16 -100 3 -25 8 -54
10 -65 8 -56 57 -307 71 -364 8 -37 17 -77 20 -91 2 -14 17 -83 33 -155 16
-71 31 -141 34 -155 2 -14 7 -32 10 -40 3 -8 7 -26 10 -40 2 -14 16 -74 31
-135 14 -60 35 -150 47 -200 45 -192 167 -671 177 -697 6 -16 8 -28 6 -28 -2
0 0 -11 5 -25 5 -14 12 -36 14 -48 15 -69 162 -602 206 -747 42 -134 161 -536
165 -555 3 -11 46 -146 95 -300 50 -154 92 -287 94 -295 3 -8 41 -123 85 -255
114 -340 186 -546 333 -950 181 -501 532 -1387 649 -1643 16 -35 29 -65 29
-68 0 -2 16 -39 36 -81 20 -43 49 -107 66 -143 58 -127 235 -475 288 -565 10
-16 26 -46 37 -65 10 -19 44 -78 76 -130 32 -52 63 -104 70 -115 7 -11 15 -22
18 -25 3 -3 12 -16 19 -29 7 -14 17 -30 22 -35 5 -6 40 -55 77 -109 151 -218
276 -331 486 -438 72 -37 239 -99 305 -113 205 -45 259 -51 465 -51 150 0 268
7 330 19 23 4 89 16 125 23 364 65 938 307 1292 544 61 42 64 41 88 -21 36
-93 111 -171 276 -290 312 -224 646 -361 989 -406 22 -3 67 -9 100 -14 64 -8
436 -6 520 4 47 5 63 8 151 22 167 27 444 102 569 154 11 5 76 32 145 60 165
68 370 173 544 278 78 46 148 90 156 97 8 7 39 25 68 40 l54 28 151 -37 c159
-38 307 -71 367 -81 19 -3 42 -8 50 -10 8 -2 35 -6 60 -9 25 -3 54 -7 65 -10
12 -2 48 -7 80 -11 33 -4 67 -9 75 -10 8 -2 56 -6 105 -10 50 -4 99 -10 110
-13 11 -2 180 -6 375 -7 l354 -2 -3 -43 c-1 -24 -5 -53 -7 -64 -16 -83 -23
-402 -11 -506 24 -209 95 -385 219 -537 132 -163 205 -197 490 -228 291 -32
580 -46 988 -46 380 -1 1052 17 1390 36 47 3 128 7 180 10 104 6 222 13 315
20 113 8 240 17 280 20 22 2 81 6 130 10 50 3 106 8 125 10 19 2 71 6 115 10
44 3 96 8 115 10 19 3 67 7 105 10 39 3 81 8 95 10 14 2 57 7 96 10 39 3 80 7
90 9 10 2 48 7 84 11 36 4 72 9 80 10 8 2 46 6 84 9 38 4 72 9 75 10 3 2 31 7
62 10 31 4 65 8 75 10 23 4 95 14 149 21 22 3 49 7 61 9 12 2 45 7 74 11 29 4
62 9 74 11 11 2 38 6 61 9 22 3 76 12 120 20 44 8 98 17 120 20 77 11 110 17
115 20 3 2 25 6 50 10 25 4 48 9 52 12 5 2 20 6 33 9 82 15 398 110 438 132
91 49 179 186 259 402 45 122 112 337 122 392 2 15 7 31 10 36 3 5 7 19 10 33
2 13 16 69 30 124 14 55 27 111 30 125 3 14 14 68 26 120 12 52 24 104 26 115
6 25 23 112 29 145 2 14 9 50 15 80 28 139 49 256 81 440 10 63 21 129 24 145
3 17 10 57 16 90 6 33 13 72 15 88 7 47 12 80 28 167 8 47 17 99 19 115 3 17
12 71 21 120 8 50 18 110 21 135 4 25 10 63 15 85 5 22 12 65 15 95 4 30 8 58
10 61 2 3 6 25 9 50 3 24 8 55 11 69 3 14 8 45 11 70 3 25 7 52 9 60 3 8 16
88 30 178 13 89 27 175 29 190 2 15 8 47 11 72 4 25 9 52 10 60 2 8 8 51 15
95 7 44 14 87 15 96 2 9 6 40 10 69 4 29 9 62 11 74 2 11 6 38 9 61 3 22 8 51
10 65 2 14 7 45 10 70 3 25 8 56 10 70 2 14 7 45 10 70 3 25 10 70 15 100 5
30 12 78 15 105 4 28 8 57 10 65 2 8 7 35 10 60 3 25 12 86 20 135 7 50 16
108 20 130 10 72 41 265 50 320 2 11 6 41 10 66 3 26 8 58 10 70 3 13 8 44 11
69 3 25 8 54 10 65 5 23 21 123 29 180 4 22 8 51 11 65 2 14 11 66 19 115 9
50 17 104 19 120 3 17 21 125 41 240 53 309 58 367 42 473 -33 211 -200 589
-454 1027 -12 22 -26 47 -30 55 -4 8 -22 42 -41 75 -19 33 -47 83 -62 110 -15
28 -103 182 -194 343 -91 161 -166 297 -166 302 0 6 -4 10 -10 10 -5 0 -10 4
-10 9 0 5 -24 51 -53 103 -55 97 -213 376 -262 463 -16 28 -44 79 -63 115
l-34 65 7 120 c3 66 8 136 10 155 2 19 6 80 10 135 3 55 8 116 10 135 2 19 6
80 10 135 3 55 8 129 11 165 11 148 13 193 20 365 14 370 3 981 -22 1190 -5
46 -14 107 -20 150 -5 32 -43 223 -48 240 -103 379 -251 683 -481 990 -102
136 -137 176 -295 338 -334 343 -654 537 -1020 617 -131 29 -190 34 -380 35
-166 0 -201 -3 -365 -30 -110 -18 -256 -49 -375 -80 -65 -17 -97 -26 -180 -49
-52 -15 -102 -29 -110 -31 -8 -2 -85 -22 -170 -44 -344 -90 -623 -132 -795
-120 -116 9 -237 49 -329 109 -83 55 -242 209 -415 405 -132 149 -320 340
-411 418 -184 158 -440 303 -675 382 -139 46 -361 94 -515 110 -30 4 -68 8
-85 11 -34 6 -530 15 -536 10z"/>
<path d="M8290 8479 l0 -886 138 -139 138 -139 750 0 749 0 138 139 137 138 0
303 0 303 -71 71 -70 70 70 72 71 71 0 303 0 303 -138 138 -139 139 -886 0
-887 0 0 -886z m1445 282 l0 -236 -368 0 c-202 0 -368 -2 -368 -5 -1 -3 -2
-85 -3 -182 -1 -152 1 -178 14 -179 8 0 174 -1 368 -1 247 -1 352 -4 353 -12
1 -6 2 -113 3 -237 l1 -226 -420 1 -420 1 0 656 0 656 420 0 420 0 0 -236z"/>
<path d="M10445 9360 c-1 -3 -3 -401 -3 -885 l0 -880 139 -140 139 -140 153 1
c83 1 157 2 163 3 9 1 12 95 12 350 0 193 3 354 6 359 3 5 138 9 306 9 l301 0
22 -27 c12 -14 32 -40 44 -56 12 -16 58 -78 103 -139 45 -60 93 -123 106 -140
13 -16 48 -64 78 -105 31 -41 59 -80 63 -85 4 -6 21 -28 38 -50 16 -22 33 -44
38 -50 4 -5 22 -29 38 -53 l31 -43 32 24 c197 146 256 192 256 199 0 5 -85
122 -190 261 -104 140 -190 256 -190 259 0 3 81 5 180 4 l180 -1 1 165 c0 91
0 329 0 528 l0 364 -137 136 -137 137 -884 0 c-487 0 -886 -2 -888 -5z m1442
-640 c1 -151 1 -284 -2 -295 -4 -20 -12 -20 -420 -20 -362 0 -415 2 -416 15 0
22 -1 498 0 541 l1 36 418 -1 417 -1 2 -275z"/>
<path d="M12718 9226 l-138 -139 0 -747 0 -748 139 -138 138 -139 749 0 749 0
137 138 136 138 0 750 0 750 -138 137 -138 137 -748 0 -749 0 -137 -139z
m1308 -876 c0 -355 -1 -650 -3 -656 -3 -8 -128 -11 -421 -11 l-417 0 1 656 c1
361 2 656 3 657 0 0 189 0 418 0 l418 -1 1 -645z"/>
<path d="M14935 9360 c-2 -3 -3 -85 -3 -182 1 -123 4 -178 12 -179 6 0 166 -2
356 -3 190 -2 347 -3 350 -4 3 -1 5 -315 5 -699 l0 -696 139 -139 138 -138
164 0 164 0 0 838 0 839 356 0 c245 -1 358 3 362 10 5 9 8 295 3 348 -1 10
-2040 15 -2046 5z"/>
<path d="M17209 9360 c-1 -3 -2 -402 -3 -888 l-1 -882 140 -138 140 -139 153
2 c83 2 156 3 161 4 5 0 9 123 9 284 0 155 1 316 1 358 l1 76 413 -2 c226 -1
415 -3 419 -3 4 -1 7 -149 7 -329 0 -181 0 -342 0 -358 l1 -31 164 1 164 1
138 137 137 138 -1 751 -1 750 -135 137 -135 136 -166 0 c-141 0 -165 -2 -166
-15 0 -8 0 -217 0 -465 0 -247 -2 -457 -4 -465 -4 -13 -60 -15 -420 -15 l-415
0 -1 30 c0 16 -1 232 -2 480 l-2 450 -297 0 c-164 0 -299 -2 -299 -5z"/>
<path d="M19357 9351 c-9 -10 -12 -239 -13 -886 l-1 -873 138 -138 139 -139
632 -1 c348 0 638 2 645 4 8 3 12 54 11 183 l0 179 -27 1 c-14 0 -230 1 -478
1 l-453 1 -1 29 c-1 15 -1 40 -2 56 l-1 27 242 3 242 2 0 164 0 164 -139 139
-139 139 -94 -1 c-51 -1 -97 0 -103 2 -6 2 -10 108 -9 296 l1 292 481 0 480 0
0 185 0 185 -770 0 c-649 0 -772 -2 -781 -14z"/>
<path d="M21084 9361 c-2 -2 -4 -401 -4 -887 l0 -882 138 -139 139 -138 156 0
c85 0 159 4 164 8 4 5 9 165 9 355 1 191 2 350 3 353 0 4 139 6 308 6 l306 -1
280 -373 279 -374 32 24 c17 13 81 61 141 106 61 46 109 88 109 95 -1 10 -285
399 -304 416 -12 10 -70 94 -70 100 0 4 78 7 173 7 94 1 175 2 180 2 4 1 7
237 7 525 l0 524 -138 139 -138 138 -883 0 c-485 0 -884 -2 -887 -4z m1442
-651 c0 -157 -1 -290 -3 -295 -2 -7 -144 -10 -416 -9 -226 1 -414 2 -417 3 -4
1 -5 584 -1 587 0 0 189 0 419 0 l417 -1 1 -285z"/>
<path d="M23716 9358 c-7 -4 -72 -66 -145 -138 l-131 -131 0 -464 c0 -256 3
-465 8 -466 4 0 329 -1 722 -2 l715 -2 0 -236 0 -236 -710 -1 c-390 0 -716 -1
-722 -1 -10 -1 -13 -45 -13 -184 l0 -182 888 0 887 1 138 138 137 138 0 464
c0 255 -3 464 -7 465 -5 0 -328 1 -720 2 -501 0 -713 4 -716 11 -2 6 -3 112
-3 236 l1 225 722 0 723 0 0 185 0 185 -881 0 c-484 0 -886 -3 -893 -7z"/>
<path d="M10358 5915 c-2 -1 -64 -6 -138 -9 -74 -4 -153 -9 -175 -11 -22 -2
-69 -6 -105 -10 -36 -3 -90 -8 -120 -10 -65 -6 -344 -43 -380 -50 -14 -3 -38
-7 -55 -10 -16 -3 -41 -8 -55 -10 -14 -3 -36 -7 -50 -10 -310 -58 -644 -169
-850 -283 -70 -38 -177 -108 -197 -128 -7 -7 -18 -14 -25 -16 -12 -4 -21 -137
-9 -139 3 -1 970 -2 2149 -3 l2144 -1 -39 33 c-48 42 -298 208 -384 255 -402
221 -797 344 -1259 393 -59 6 -446 14 -452 9z"/>
<path d="M15231 5859 c-17 -4 -42 -19 -55 -34 l-24 -28 -263 -2 c-218 -2 -274
-5 -319 -20 -193 -61 -355 -213 -415 -390 -17 -49 -19 -60 -31 -120 -12 -61
-6 -300 10 -370 53 -248 250 -434 506 -480 19 -4 141 -7 270 -7 l235 1 33 -32
33 -32 176 -3 c187 -4 219 2 251 43 l18 23 897 0 c863 0 898 -1 910 -19 31
-43 63 -49 242 -48 178 1 213 8 236 51 8 14 34 16 227 16 120 0 232 3 248 6
16 3 39 8 52 11 45 8 68 17 142 53 108 54 212 160 267 272 23 47 47 110 54
140 16 73 18 319 3 400 -44 234 -212 416 -449 487 -37 11 -113 16 -288 18
l-239 3 -27 26 c-15 15 -41 30 -57 34 -23 7 -266 9 -347 3 -10 0 -33 -15 -50
-33 l-32 -31 -894 0 c-885 0 -894 0 -910 20 -34 41 -59 47 -222 48 -86 0 -170
-2 -188 -6z m292 -28 c49 -1 62 -5 82 -27 23 -25 25 -35 25 -120 0 -91 0 -93
-31 -118 -30 -26 -32 -26 -197 -26 -219 1 -230 9 -226 163 3 119 30 135 219
130 39 -1 96 -2 128 -2z m2352 -5 c41 -10 57 -57 53 -153 -3 -78 -5 -87 -31
-109 -27 -23 -33 -24 -197 -24 -164 0 -170 1 -197 24 -25 21 -28 32 -31 99 -6
120 17 162 93 169 51 5 285 0 310 -6z m-2352 -325 c4 0 7 -48 7 -105 l0 -103
35 -6 c81 -13 135 -86 135 -182 0 -31 -6 -70 -14 -88 -18 -44 -78 -95 -121
-103 l-35 -6 0 -104 0 -104 -110 0 -110 0 0 398 c0 219 2 401 4 403 4 4 185 4
209 0z m2247 0 l25 -1 0 -400 0 -400 -107 0 -108 0 0 103 0 103 -46 12 c-57
15 -108 64 -123 117 -34 122 24 232 132 254 35 8 34 4 36 148 l1 62 38 3 c20
2 57 2 82 1 25 -1 56 -2 70 -2z m-2495 -386 c0 -110 -1 -206 -3 -212 -7 -22
-80 -16 -92 6 -6 12 -10 95 -10 200 0 204 4 215 68 209 l36 -3 1 -200z m537
188 c16 -14 18 -34 18 -195 0 -105 -4 -187 -10 -199 -10 -17 -22 -19 -113 -19
l-102 0 30 19 c74 45 110 122 102 216 -8 86 -44 144 -112 179 -29 15 -27 16
69 16 79 0 103 -3 118 -17z m1660 -3 c-74 -45 -106 -106 -105 -200 1 -87 34
-152 98 -191 l30 -19 -96 0 c-72 0 -100 4 -108 14 -9 10 -12 72 -12 202 0 168
2 190 17 201 12 9 51 13 113 13 l96 0 -33 -20z m439 10 c18 -10 19 -23 19
-203 0 -137 -3 -196 -12 -205 -7 -7 -29 -12 -50 -12 l-38 0 0 215 0 215 31 0
c17 0 39 -5 50 -10z m-2304 -674 c20 -24 23 -38 23 -111 0 -94 -11 -128 -47
-144 -14 -7 -87 -11 -179 -11 -219 0 -232 9 -228 168 1 60 5 77 24 97 28 30
31 30 224 29 l160 -2 23 -26z m2271 20 c35 -12 52 -56 52 -136 0 -81 -18 -126
-56 -140 -14 -6 -92 -10 -174 -10 -82 0 -160 4 -174 10 -42 15 -58 62 -54 150
3 80 19 113 60 129 24 9 318 6 346 -3z"/>
<path d="M15421 5146 l-24 -43 24 -44 c24 -44 25 -44 79 -44 54 0 55 0 79 44
l24 44 -24 43 c-23 44 -24 44 -79 44 -55 0 -56 0 -79 -44z m124 -12 c14 -22
15 -30 4 -55 -10 -26 -16 -30 -48 -27 -26 2 -39 10 -50 29 -12 22 -12 28 4 52
23 36 66 37 90 1z"/>
<path d="M17525 5146 l-25 -43 26 -47 c26 -46 26 -46 78 -46 53 0 53 0 79 48
l25 47 -25 43 c-24 41 -26 42 -79 42 -52 0 -54 -1 -79 -44z m126 -14 c14 -25
14 -32 2 -55 -11 -21 -21 -27 -48 -27 -27 0 -37 6 -49 27 -34 66 58 119 95 55z"/>
<path d="M21212 5752 c-12 -2 -26 -11 -31 -20 -13 -25 -12 -197 2 -216 8 -11
30 -17 62 -19 l50 -2 0 -70 0 -70 -140 0 c-109 0 -145 -3 -161 -15 -75 -54
-115 -241 -84 -400 13 -69 55 -156 84 -175 15 -10 46 -15 87 -14 35 0 98 1
140 0 l75 -1 0 -50 c0 -54 -3 -56 -72 -51 -43 4 -54 -23 -54 -129 0 -72 4
-102 14 -113 11 -11 46 -14 144 -14 71 0 136 3 143 8 10 6 14 39 17 115 3 121
-4 135 -70 132 -47 -2 -52 3 -53 58 l-1 44 58 0 c121 0 243 -78 289 -185 l24
-55 60 -1 c33 -1 83 -3 110 -4 288 -17 1117 -22 1480 -10 265 8 573 22 685 30
19 2 85 6 145 9 61 4 124 9 140 11 17 2 73 7 125 11 52 3 104 8 115 9 11 1 35
3 52 4 27 1 38 9 58 40 32 52 61 78 115 105 56 29 76 34 170 41 41 4 80 8 85
8 6 1 11 -31 13 -75 l3 -78 -41 0 c-76 0 -80 -6 -80 -129 0 -75 4 -112 13
-119 6 -5 71 -10 143 -11 107 -1 134 2 144 14 8 10 13 50 13 117 0 118 -9 132
-80 126 l-43 -3 0 82 c0 59 4 83 13 84 20 2 57 6 151 14 124 10 141 15 166 49
30 41 36 83 35 231 -1 163 -11 199 -60 231 -26 17 -35 19 -180 29 -49 4 -95
11 -100 15 -6 5 -11 33 -10 62 l0 53 52 3 c38 2 55 8 62 20 4 9 9 61 9 114 1
84 -2 100 -18 111 -25 17 -261 17 -283 -2 -12 -10 -16 -33 -15 -109 1 -125 5
-132 71 -132 l52 0 0 -57 0 -58 -75 3 c-154 7 -265 55 -317 138 -15 24 -35 46
-43 48 -8 3 -55 8 -105 11 -49 4 -108 9 -130 11 -115 10 -415 30 -590 39 -585
30 -1355 33 -1900 9 -82 -3 -162 -6 -177 -5 -23 1 -31 -6 -53 -52 -23 -47 -56
-88 -105 -129 -47 -41 -176 -72 -240 -59 -3 1 -5 30 -5 66 0 71 3 75 64 73 51
-2 59 18 59 132 0 72 -3 102 -13 110 -13 11 -208 20 -263 12z"/>
<path d="M8201 5000 c-3 -3 -6 -33 -6 -67 0 -61 0 -62 45 -95 160 -122 387
-230 650 -310 88 -27 298 -80 366 -92 65 -13 262 -45 304 -51 25 -3 56 -8 70
-10 14 -3 50 -7 80 -10 30 -3 66 -8 80 -10 14 -2 63 -7 110 -10 47 -4 101 -8
120 -10 180 -20 645 -26 810 -12 52 5 97 10 100 12 3 1 28 5 55 9 58 7 100 14
135 22 14 3 36 8 50 11 56 10 230 56 320 85 308 98 650 273 897 457 55 42 99
78 97 80 -6 6 -4275 7 -4283 1z"/>
</g>
</svg>
